<svg width="120" height="40" viewBox="0 0 120 40" fill="none" xmlns="http://www.w3.org/2000/svg">
<path d="M6.21752 8.76024V11.2363H2.71327V18.3833H0V1.05072H7.17867V3.52219H2.71327V8.76024H6.21752Z" fill="#333333"/>
<path d="M9.32621 1.99187C10.0344 1.23106 11.037 0.852966 12.3844 0.852966C13.7318 0.852966 14.7344 1.23106 15.4426 1.99187C16.1508 2.75268 16.5049 3.83626 16.5049 5.21954V14.2109C16.5808 15.3841 16.2 16.5411 15.4426 17.4386C14.7344 18.1948 13.718 18.5729 12.3844 18.5729C11.0507 18.5729 10.0344 18.1948 9.32621 17.4386C8.56881 16.5411 8.18801 15.3841 8.2639 14.2109V5.20571C8.27769 3.82242 8.618 2.76651 9.32621 1.99187ZM12.3844 16.0922C13.3041 16.0922 13.7916 15.5204 13.7916 14.3861V5.0351C13.7916 3.89466 13.3225 3.32598 12.3844 3.32905C11.4462 3.33212 10.9772 3.90081 10.9772 5.0351V14.3861C10.9772 15.5204 11.4462 16.0922 12.3844 16.0922Z" fill="#333333"/>
<path d="M20.846 14.4087C20.846 15.5276 21.3151 16.0886 22.2532 16.0917C23.1914 16.0948 23.6605 15.5338 23.6605 14.4087V1.03693H26.2128V14.2335C26.2128 15.6352 25.8663 16.7111 25.1735 17.4612C24.7805 17.8519 24.309 18.1544 23.7905 18.3484C23.2719 18.5423 22.7181 18.6234 22.1659 18.5862C21.613 18.6229 21.0586 18.5416 20.5394 18.3477C20.0202 18.1537 19.5479 17.8516 19.1537 17.4612C18.4639 16.708 18.119 15.6321 18.119 14.2335V1.05076H20.8322L20.846 14.4087Z" fill="#333333"/>
<path d="M30.4943 18.3649H28.0524V1.05072H31.4555L34.2423 11.4162V1.05072H36.6613V18.3649H33.8744L30.4943 5.82306V18.3649Z" fill="#333333"/>
<path d="M42.9019 1.05072C44.2479 1.05072 45.2596 1.41345 45.9371 2.13891C46.6147 2.86436 46.9519 3.92796 46.9489 5.32969V14.0905C46.9489 15.4922 46.6116 16.5558 45.9371 17.2813C45.2611 18.0098 44.2494 18.3695 42.9019 18.3695H38.6297V1.05072H42.9019ZM41.3246 15.8934H42.8514C43.0407 15.9054 43.2304 15.8761 43.4074 15.8077C43.5844 15.7392 43.7446 15.6332 43.8769 15.4968C44.1494 15.1265 44.277 14.6688 44.2356 14.2104V5.20519C44.2753 4.74697 44.1478 4.28988 43.8769 3.91874C43.7446 3.78239 43.5844 3.67635 43.4074 3.6079C43.2304 3.53946 43.0407 3.51022 42.8514 3.52219H41.3246V15.8934Z" fill="#333333"/>
<path d="M55.1162 8.34987V10.8213H51.3912V15.8934H56.0773V18.3649H48.6779V1.05072H56.0773V3.52219H51.3912V8.34987H55.1162Z" fill="#333333"/>
<path d="M63.233 17.5764C63.1915 17.1319 63.1746 16.6855 63.1824 16.2392V13.5187C63.2361 12.9221 63.0887 12.3247 62.7639 11.8219C62.5903 11.6407 62.3782 11.501 62.1433 11.4132C61.9085 11.3254 61.6569 11.2917 61.4073 11.3147H60.4876V18.3649H57.7743V1.05072H61.8672C63.2652 1.05072 64.2861 1.37656 64.93 2.02824C65.5692 2.67839 65.8911 3.68358 65.8911 5.03459V6.39482C65.8911 8.17465 65.2994 9.34583 64.116 9.90837C64.732 10.1497 65.2279 10.6254 65.4956 11.2317C65.7997 11.9802 65.9423 12.7848 65.9141 13.5925V16.2623C65.9106 16.664 65.9275 17.0657 65.9647 17.4657C65.9988 17.7769 66.0826 18.0805 66.213 18.3649H63.4538C63.3515 18.111 63.2775 17.8465 63.233 17.5764ZM60.4738 8.84324H61.5361C61.757 8.86068 61.9792 8.83243 62.1888 8.76025C62.3985 8.68808 62.5911 8.57351 62.7548 8.42364C63.0655 8.02281 63.2119 7.51812 63.164 7.01269V5.30663C63.2048 4.82851 63.0867 4.35031 62.8283 3.9464C62.6988 3.7984 62.5365 3.68293 62.3544 3.60925C62.1723 3.53558 61.9755 3.50576 61.7798 3.52219H60.4738V8.84324Z" fill="#333333"/>
<path d="M68.3377 1.97804C69.0153 1.22799 70.0101 0.852966 71.3223 0.852966C72.6422 0.852966 73.6217 1.22645 74.3115 1.97804C75.0013 2.72963 75.3232 3.82242 75.3232 5.20571V5.7498H72.7571V5.0351C72.7971 4.57392 72.6733 4.11341 72.4076 3.73481C72.1356 3.47464 71.7741 3.32949 71.3982 3.32949C71.0223 3.32949 70.6608 3.47464 70.3888 3.73481C70.1231 4.11341 69.9993 4.57392 70.0393 5.0351C70.0255 5.71551 70.2285 6.38258 70.6187 6.93943C71.1335 7.61388 71.7177 8.23208 72.3616 8.78381C73.0024 9.37709 73.5205 9.9012 73.916 10.3561C74.3362 10.8491 74.6775 11.4044 74.9277 12.0023C75.2161 12.6989 75.3586 13.4475 75.3462 14.2017C75.3462 15.6034 75.0013 16.6793 74.3115 17.4294C73.6217 18.1794 72.6115 18.5575 71.2809 18.5637C69.9657 18.5637 68.9631 18.1886 68.2733 17.4386C67.5835 16.6885 67.2371 15.6126 67.234 14.2109V13.1458H69.8001V14.3861C69.8001 15.5081 70.2692 16.0691 71.2073 16.0691C72.1455 16.0691 72.6146 15.5081 72.6146 14.3861C72.6289 13.7056 72.4259 13.0384 72.0351 12.4818C71.5216 11.8062 70.9373 11.1879 70.2922 10.6374C69.6545 10.0441 69.1364 9.52157 68.7378 9.06969C68.3212 8.5751 67.9816 8.0201 67.7307 7.42358C67.439 6.72617 67.295 5.97566 67.3076 5.21954C67.326 3.80398 67.6663 2.72963 68.3377 1.97804Z" fill="#333333"/>
<path d="M46.6038 21.8282V36.6709H51.0692V39.1469H43.8905V21.8282H46.6038Z" fill="#333333"/>
<path d="M58.2984 39.1469L57.8385 36.0023H54.509L54.0492 39.1469H51.5566L54.3159 21.8282H58.2892L61.0485 39.1469H58.2984ZM57.4844 33.6599L56.1508 24.8991L54.8448 33.6599H57.4844Z" fill="#333333"/>
<path d="M65.0081 21.8282V39.1469H62.2948V21.8282H65.0081Z" fill="#333333"/>
<path d="M72.4584 38.3539C72.4191 37.9108 72.4037 37.466 72.4124 37.0213V34.2962C72.4651 33.7005 72.316 33.1044 71.9893 32.604C71.8156 32.4228 71.6035 32.2831 71.3687 32.1952C71.1338 32.1074 70.8823 32.0738 70.6327 32.0968H69.7129V39.1469H66.9996V21.8282H71.0971C72.4952 21.8282 73.5145 22.154 74.1553 22.8057C74.7991 23.4605 75.1164 24.461 75.1164 25.8121V27.1953C75.1164 28.9752 74.5278 30.1464 73.3413 30.7089C73.9576 30.9498 74.4536 31.4256 74.721 32.0322C75.0233 32.7829 75.1658 33.5886 75.1394 34.3977V37.0674C75.1348 37.4675 75.1502 37.8676 75.1854 38.2662C75.2181 38.5851 75.302 38.8965 75.4338 39.1884H72.6745C72.5732 38.9187 72.5007 38.6389 72.4584 38.3539ZM69.6991 29.6207H70.7614C70.9831 29.6382 71.206 29.61 71.4164 29.5379C71.6268 29.4657 71.8202 29.3511 71.9847 29.2011C72.2947 28.8 72.4395 28.2951 72.3894 27.7902V26.0841C72.4342 25.599 72.3178 25.1127 72.0583 24.7008C71.9279 24.5542 71.7653 24.44 71.5833 24.3672C71.4013 24.2944 71.205 24.2649 71.0098 24.2812H69.6991V29.6207Z" fill="#333333"/>
<path d="M88.4987 0H80.2209C79.9669 0 79.761 0.20644 79.761 0.461096V8.76082C79.761 9.01547 79.9669 9.22191 80.2209 9.22191H88.4987C88.7527 9.22191 88.9586 9.01547 88.9586 8.76082V0.461096C88.9586 0.20644 88.7527 0 88.4987 0Z" fill="#FF00CC"/>
<path d="M88.4987 10.2594H80.2209C79.9669 10.2594 79.761 10.4658 79.761 10.7205V19.0202C79.761 19.2749 79.9669 19.4813 80.2209 19.4813H88.4987C88.7527 19.4813 88.9586 19.2749 88.9586 19.0202V10.7205C88.9586 10.4658 88.7527 10.2594 88.4987 10.2594Z" fill="#FF00CC"/>
<path d="M88.4987 20.5187H80.2209C79.9669 20.5187 79.761 20.7252 79.761 20.9798V29.2796C79.761 29.5342 79.9669 29.7407 80.2209 29.7407H88.4987C88.7527 29.7407 88.9586 29.5342 88.9586 29.2796V20.9798C88.9586 20.7252 88.7527 20.5187 88.4987 20.5187Z" fill="#FF00CC"/>
<path d="M88.4987 30.7781H80.2209C79.9669 30.7781 79.761 30.9845 79.761 31.2392V39.5389C79.761 39.7935 79.9669 40 80.2209 40H88.4987C88.7527 40 88.9586 39.7935 88.9586 39.5389V31.2392C88.9586 30.9845 88.7527 30.7781 88.4987 30.7781Z" fill="#FF00CC"/>
<path d="M98.846 10.2594H90.5683C90.3143 10.2594 90.1084 10.4658 90.1084 10.7205V19.0202C90.1084 19.2749 90.3143 19.4813 90.5683 19.4813H98.846C99.1 19.4813 99.3059 19.2749 99.3059 19.0202V10.7205C99.3059 10.4658 99.1 10.2594 98.846 10.2594Z" fill="#FF66CC"/>
<path d="M98.846 20.5187H90.5683C90.3143 20.5187 90.1084 20.7252 90.1084 20.9798V29.2796C90.1084 29.5342 90.3143 29.7407 90.5683 29.7407H98.846C99.1 29.7407 99.3059 29.5342 99.3059 29.2796V20.9798C99.3059 20.7252 99.1 20.5187 98.846 20.5187Z" fill="#FF66CC"/>
<path d="M98.846 30.7781H90.5683C90.3143 30.7781 90.1084 30.9845 90.1084 31.2392V39.5389C90.1084 39.7935 90.3143 40 90.5683 40H98.846C99.1 40 99.3059 39.7935 99.3059 39.5389V31.2392C99.3059 30.9845 99.1 30.7781 98.846 30.7781Z" fill="#FF66CC"/>
<path d="M109.193 20.5187H100.915C100.661 20.5187 100.455 20.7252 100.455 20.9798V29.2796C100.455 29.5342 100.661 29.7407 100.915 29.7407H109.193C109.447 29.7407 109.653 29.5342 109.653 29.2796V20.9798C109.653 20.7252 109.447 20.5187 109.193 20.5187Z" fill="#FF00CC"/>
<path d="M109.193 30.7781H100.915C100.661 30.7781 100.455 30.9845 100.455 31.2392V39.5389C100.455 39.7935 100.661 40 100.915 40H109.193C109.447 40 109.653 39.7935 109.653 39.5389V31.2392C109.653 30.9845 109.447 30.7781 109.193 30.7781Z" fill="#FF00CC"/>
<path d="M119.54 30.7781H111.262C111.008 30.7781 110.803 30.9845 110.803 31.2392V39.5389C110.803 39.7935 111.008 40 111.262 40H119.54C119.794 40 120 39.7935 120 39.5389V31.2392C120 30.9845 119.794 30.7781 119.54 30.7781Z" fill="#FF66CC"/>
</svg>
