<svg width="30" height="30" viewBox="0 0 30 30" fill="none" xmlns="http://www.w3.org/2000/svg">
<path d="M15.0002 10.3139C12.4197 10.3139 10.3138 12.4198 10.3138 15.0003C10.3138 17.5807 12.4197 19.6866 15.0002 19.6866C17.5806 19.6866 19.6865 17.5807 19.6865 15.0003C19.6865 12.4198 17.5806 10.3139 15.0002 10.3139ZM29.0556 15.0003C29.0556 13.0596 29.0732 11.1366 28.9642 9.19948C28.8552 6.94948 28.342 4.95261 26.6967 3.3073C25.0478 1.65847 23.0545 1.1487 20.8045 1.03972C18.8638 0.930733 16.9408 0.948311 15.0037 0.948311C13.0631 0.948311 11.14 0.930733 9.2029 1.03972C6.9529 1.1487 4.95603 1.66198 3.31071 3.3073C1.66189 4.95612 1.15212 6.94948 1.04314 9.19948C0.934151 11.1401 0.951729 13.0632 0.951729 15.0003C0.951729 16.9374 0.934151 18.8639 1.04314 20.801C1.15212 23.051 1.6654 25.0479 3.31071 26.6932C4.95954 28.3421 6.9529 28.8518 9.2029 28.9608C11.1435 29.0698 13.0666 29.0522 15.0037 29.0522C16.9443 29.0522 18.8674 29.0698 20.8045 28.9608C23.0545 28.8518 25.0513 28.3385 26.6967 26.6932C28.3455 25.0444 28.8552 23.051 28.9642 20.801C29.0767 18.8639 29.0556 16.9409 29.0556 15.0003ZM15.0002 22.2108C11.0099 22.2108 7.78962 18.9905 7.78962 15.0003C7.78962 11.01 11.0099 7.78972 15.0002 7.78972C18.9904 7.78972 22.2107 11.01 22.2107 15.0003C22.2107 18.9905 18.9904 22.2108 15.0002 22.2108ZM22.506 9.17839C21.5744 9.17839 20.822 8.42604 20.822 7.4944C20.822 6.56276 21.5744 5.81042 22.506 5.81042C23.4377 5.81042 24.19 6.56276 24.19 7.4944C24.1903 7.71563 24.1469 7.93473 24.0624 8.13917C23.9779 8.3436 23.8538 8.52935 23.6974 8.68578C23.541 8.84221 23.3552 8.96624 23.1508 9.05077C22.9464 9.1353 22.7272 9.17867 22.506 9.17839Z" fill="black" fill-opacity="0.65"/>
</svg>
